<?xml version="1.0" encoding="UTF-8" standalone="no" ?>
<!DOCTYPE svg PUBLIC "-//W3C//DTD SVG 1.1//EN" "http://www.w3.org/Graphics/SVG/1.1/DTD/svg11.dtd">
<svg xmlns="http://www.w3.org/2000/svg" xmlns:xlink="http://www.w3.org/1999/xlink" version="1.1" width="1200" height="900" viewBox="108 138 1200 900" xml:space="preserve">
<desc>Created with Fabric.js 5.2.4</desc>
<defs>
</defs>
<rect x="0" y="0" width="100%" height="100%" fill="transparent"></rect>
<g transform="matrix(1 0 0 1 600 450)" id="fb3ebdbb-4529-44e0-a718-df6c817b603a"  >
<rect style="stroke: none; stroke-width: 1; stroke-dasharray: none; stroke-linecap: butt; stroke-dashoffset: 0; stroke-linejoin: miter; stroke-miterlimit: 4; fill: rgb(255,255,255); fill-rule: nonzero; opacity: 1; visibility: hidden;" vector-effect="non-scaling-stroke"  x="-600" y="-450" rx="0" ry="0" width="1200" height="900" />
</g>
<g transform="matrix(0 0 0 0 0 0)" id="e2b6bf56-1ee0-459b-8bbd-cd880a12568a"  >
</g>
<g transform="matrix(-11.19 7.87 5.7 6.56 776.74 657.83)"  >
<path style="stroke: rgb(0,0,0); stroke-width: 0; stroke-dasharray: none; stroke-linecap: butt; stroke-dashoffset: 0; stroke-linejoin: miter; stroke-miterlimit: 4; fill: rgb(185,28,28); fill-rule: nonzero; opacity: 1;" vector-effect="non-scaling-stroke"  transform=" translate(-49.5, -47.97)" d="M 55.936 68.721 L 12.947 68.721 L 24.11 27.21 L 31.351 39.756 C 59.902 21.490000000000002 75.354 35.005 86.054 60.003 C 71.896 46.397 57.778 42.799 43.62 53.869 L 55.936 68.721 z" stroke-linecap="round" />
</g>
<g transform="matrix(-8.12 5.71 4.58 5.39 387.47 402.87)"  >
<path style="stroke: rgb(0,0,0); stroke-width: 0; stroke-dasharray: none; stroke-linecap: butt; stroke-dashoffset: 0; stroke-linejoin: miter; stroke-miterlimit: 4; fill: rgb(15,23,42); fill-rule: nonzero; opacity: 1;" vector-effect="non-scaling-stroke"  transform=" translate(-49.5, -47.97)" d="M 55.936 68.721 L 12.947 68.721 L 24.11 27.21 L 31.351 39.756 C 59.902 21.490000000000002 75.354 35.005 86.054 60.003 C 71.896 46.397 57.778 42.799 43.62 53.869 L 55.936 68.721 z" stroke-linecap="round" />
</g>
<g transform="matrix(0 0 0 0 197.52 -0.64)"  >
<g style=""   >
</g>
</g>
<g transform="matrix(0 0 0 0 197.52 -0.64)"  >
<g style=""   >
</g>
</g>
</svg>